<svg width="1440" height="222" viewBox="0 0 1440 222" fill="none" xmlns="http://www.w3.org/2000/svg">
<path d="M0 178.378C32.8831 140.903 58.7098 6.13897 93.665 5.40375C137.359 4.48473 198.199 182.667 278.38 178.378C358.561 174.089 348.651 137.633 386.489 138.246C424.327 138.859 431.534 118.948 468.021 118.029C504.508 117.11 532.436 61.0801 572.526 61.6928C612.616 62.3055 675.68 178.378 737.842 178.378C800.005 178.378 777.933 129.976 810.816 129.364C843.699 128.751 809.464 162.449 894.6 162.449C979.736 162.449 1010.37 207.594 1050.46 207.594C1090.55 207.594 1143.7 129.364 1198.66 129.364C1253.61 129.364 1213.07 178.378 1264.42 178.378C1315.77 178.378 1295.95 207.594 1339.64 207.594C1374.6 207.594 1417.43 220.653 1441 220.653" stroke="url(#paint0_linear)" stroke-width="2"/>
<circle cx="95.0159" cy="5.85406" r="5.35406" fill="#FF7C7C" stroke="white"/>
<circle cx="277.843" cy="178.774" r="5.35406" fill="#FFE27C" stroke="white"/>
<circle cx="374.21" cy="140.047" r="5.35406" fill="#FFC37C" stroke="white"/>
<circle cx="472.378" cy="118.432" r="5.35406" fill="#FFAB7C" stroke="white"/>
<circle cx="571.447" cy="62.5934" r="5.35406" fill="#FF947C" stroke="white"/>
<circle cx="737.162" cy="178.774" r="5.35406" fill="#FFE27C" stroke="white"/>
<circle cx="811.913" cy="130.14" r="5.35406" fill="#FFC37C" stroke="white"/>
<circle cx="886.665" cy="162.563" r="5.35406" fill="#FFCB7C" stroke="white"/>
<circle cx="1048.78" cy="207.594" r="5.35406" fill="#EDFF7C" stroke="white"/>
<circle cx="1196.48" cy="130.14" r="5.35406" fill="#FFC37C" stroke="white"/>
<circle cx="1244.21" cy="173.37" r="5.35406" fill="#FFE27C" stroke="white"/>
<circle cx="1294.65" cy="185.078" r="5.35406" fill="#FFEA7C" stroke="white"/>
<circle cx="1364.9" cy="210.296" r="5.35406" fill="#DDFF7C" stroke="white"/>
<defs>
<linearGradient id="paint0_linear" x1="52.6866" y1="229.209" x2="1407.68" y2="229.209" gradientUnits="userSpaceOnUse">
<stop stop-color="#214E5C"/>
<stop offset="1" stop-color="#DCEDB9"/>
</linearGradient>
</defs>
</svg>
