<svg width="516" height="337" viewBox="0 0 516 337" fill="none" xmlns="http://www.w3.org/2000/svg">
<rect x="31.3294" y="0.684814" width="426.255" height="335.885" rx="60" fill="#DCEDB9"/>
<path d="M31.3294 40.8542C31.3294 18.6693 49.3139 0.684814 71.4988 0.684814H417.415C439.6 0.684814 457.585 18.6693 457.585 40.8542H31.3294Z" fill="#566D56"/>
<ellipse cx="65.7477" cy="21.6242" rx="6.17762" ry="5.98268" fill="#FAFAFA"/>
<ellipse cx="65.7477" cy="21.6242" rx="6.17762" ry="5.98268" fill="#FAFAFA"/>
<ellipse cx="86.4869" cy="21.6242" rx="6.17762" ry="5.98268" fill="#FAFAFA"/>
<ellipse cx="86.4869" cy="21.6242" rx="6.17762" ry="5.98268" fill="#FAFAFA"/>
<ellipse cx="107.226" cy="21.6242" rx="6.1776" ry="5.98268" fill="#FAFAFA"/>
<ellipse cx="107.226" cy="21.6242" rx="6.1776" ry="5.98268" fill="#FAFAFA"/>
<rect x="219.747" y="59.2296" width="217.54" height="128.2" rx="40" fill="#AAD0A9"/>
<ellipse cx="381.026" cy="121.834" rx="40.3751" ry="39.1011" fill="#A9EEC5"/>
<ellipse cx="381.026" cy="121.834" rx="40.3751" ry="39.1011" fill="#AABF7C"/>
<path d="M356.613 152.978C361.168 156.326 366.404 158.699 371.977 159.94C377.549 161.181 383.33 161.262 388.937 160.177C394.544 159.092 399.849 156.866 404.501 153.647C409.153 150.427 413.046 146.288 415.922 141.502C418.798 136.716 420.592 131.393 421.184 125.885C421.777 120.378 421.154 114.811 419.358 109.554C417.563 104.297 414.634 99.4686 410.767 95.3897C406.9 91.3107 402.183 88.0737 396.927 85.8929L381.026 121.834L356.613 152.978Z" fill="#FF546C"/>
<path d="M421.401 121.834C421.401 115.562 419.843 109.381 416.858 103.814C413.874 98.2477 409.55 93.4581 404.252 89.8499C398.954 86.2417 392.837 83.9208 386.418 83.0832C379.999 82.2455 373.467 82.9156 367.371 85.037L381.026 121.834H421.401Z" fill="#EEF2E2"/>
<rect x="240.927" y="86.579" width="13.2378" height="12.82" rx="6.41001" fill="#AABF7C"/>
<rect x="260.553" y="89.9136" width="46.484" height="3.3346" rx="1.6673" fill="#DCEDB9"/>
<rect x="240.927" y="116.92" width="13.2378" height="12.82" rx="6.41001" fill="#FF546C"/>
<rect x="266.079" y="121.193" width="59.5699" height="4.27334" rx="2.13667" fill="#DCEDB9"/>
<rect x="240.927" y="147.26" width="13.2378" height="12.82" rx="6.41001" fill="#EEF2E2"/>
<rect x="266.079" y="151.534" width="59.5699" height="4.27334" rx="2.13667" fill="#DCEDB9"/>
<rect x="51.6273" y="59.2296" width="149.145" height="128.2" rx="40" fill="#AAD0A9"/>
<rect x="66.6305" y="73.3316" width="10.5902" height="73.9288" rx="5.29509" fill="#A9EEC5"/>
<rect x="66.6305" y="73.3316" width="10.5902" height="73.9288" rx="5.29509" fill="#DCEDB9"/>
<rect x="66.63" y="95.5531" width="10.5902" height="51.7074" rx="5.29509" fill="#8AA357"/>
<rect x="66.63" y="95.5531" width="10.5902" height="51.7074" rx="5.29509" fill="#8AA357"/>
<rect x="88.2518" y="73.3317" width="10.5902" height="73.9288" rx="5.29509" fill="#A9EEC5"/>
<rect x="88.2518" y="73.3317" width="10.5902" height="73.9288" rx="5.29509" fill="#DCEDB9"/>
<rect x="88.2518" y="116.92" width="10.5902" height="30.3407" rx="5.29509" fill="#8AA357"/>
<rect x="88.2518" y="116.92" width="10.5902" height="30.3407" rx="5.29509" fill="#8AA357"/>
<rect x="109.873" y="73.3317" width="10.5902" height="73.9288" rx="5.29509" fill="#A9EEC5"/>
<rect x="109.873" y="73.3317" width="10.5902" height="73.9288" rx="5.29509" fill="#DCEDB9"/>
<rect x="109.873" y="87.4337" width="10.5902" height="59.8268" rx="5.29509" fill="#8AA357"/>
<rect x="109.873" y="87.4337" width="10.5902" height="59.8268" rx="5.29509" fill="#8AA357"/>
<rect x="131.495" y="73.3317" width="10.5902" height="73.9288" rx="5.29511" fill="#A9EEC5"/>
<rect x="131.495" y="73.3317" width="10.5902" height="73.9288" rx="5.29511" fill="#DCEDB9"/>
<rect x="131.495" y="104.1" width="10.5902" height="43.1607" rx="5.29511" fill="#8AA357"/>
<rect x="131.495" y="104.1" width="10.5902" height="43.1607" rx="5.29511" fill="#8AA357"/>
<rect x="153.117" y="73.3317" width="10.5902" height="73.9288" rx="5.2951" fill="#A9EEC5"/>
<rect x="153.117" y="73.3317" width="10.5902" height="73.9288" rx="5.2951" fill="#DCEDB9"/>
<rect x="153.117" y="91.2796" width="10.5902" height="55.9807" rx="5.2951" fill="#8AA357"/>
<rect x="153.117" y="91.2796" width="10.5902" height="55.9807" rx="5.2951" fill="#8AA357"/>
<rect x="174.738" y="73.3317" width="10.5902" height="73.9288" rx="5.29511" fill="#A9EEC5"/>
<rect x="174.738" y="73.3317" width="10.5902" height="73.9288" rx="5.29511" fill="#DCEDB9"/>
<rect x="174.738" y="125.894" width="10.5902" height="21.3667" rx="5.29511" fill="#8AA357"/>
<rect x="174.738" y="125.894" width="10.5902" height="21.3667" rx="5.29511" fill="#8AA357"/>
<rect x="66.63" y="156.662" width="59.5699" height="4.27334" rx="2.13667" fill="#DCEDB9"/>
<rect x="66.63" y="166.063" width="91.7817" height="4.27334" rx="2.13667" fill="#DCEDB9"/>
<rect x="51.6273" y="209.651" width="173.414" height="104.697" rx="40" fill="#AAD0A9"/>
<path d="M131.42 233.161L104.586 248.321C101.006 250.343 102.441 255.803 106.553 255.803H194.623C198.306 255.803 200.032 251.247 197.273 248.807L193.195 245.201C188.064 240.664 180.864 239.258 174.397 241.513C167.37 243.963 159.538 242.061 154.433 236.646C148.477 230.329 138.979 228.891 131.42 233.161Z" fill="#577883"/>
<ellipse cx="170.547" cy="226.531" rx="5.957" ry="5.76901" fill="#577883"/>
<rect x="74.5733" y="266.914" width="59.5699" height="4.27334" rx="2.13667" fill="#DCEDB9"/>
<rect x="74.5726" y="276.315" width="91.7817" height="4.27334" rx="2.13667" fill="#DCEDB9"/>
<rect x="74.5726" y="285.717" width="84.2803" height="4.27334" rx="2.13667" fill="#DCEDB9"/>
<rect x="74.5726" y="295.118" width="113.845" height="4.27334" rx="2.13667" fill="#DCEDB9"/>
<rect x="244.016" y="209.651" width="84.7216" height="39.3148" rx="19.6574" fill="#AAD0A9"/>
<ellipse cx="261.887" cy="228.24" rx="7.722" ry="7.47834" fill="#EEF2E2"/>
<rect x="277.11" y="222.471" width="25.593" height="4.27334" rx="2.13667" fill="#DCEDB9"/>
<rect x="277.11" y="231.873" width="39.272" height="4.27334" rx="2.13667" fill="#DCEDB9"/>
<rect x="340.651" y="242.983" width="96.6355" height="71.3648" rx="35.6824" fill="#AAD0A9"/>
<path fill-rule="evenodd" clip-rule="evenodd" d="M380.21 281.998C376.314 281.593 371.899 283.765 369.203 290.644C367.742 294.374 365.962 296.77 363.902 298.021C361.779 299.311 359.568 299.26 357.589 298.536C355.655 297.829 353.907 296.475 352.499 295.064C351.08 293.642 349.925 292.081 349.189 290.843C348.804 290.196 349.017 289.361 349.663 288.976C350.31 288.592 351.145 288.804 351.53 289.45C352.156 290.504 353.175 291.885 354.427 293.14C355.689 294.404 357.108 295.46 358.524 295.978C359.894 296.479 361.213 296.468 362.488 295.693C363.827 294.88 365.312 293.109 366.667 289.65C369.694 281.925 375.089 278.727 380.492 279.289C385.749 279.835 390.539 283.915 392.522 289.705C393.441 292.386 394.522 293.859 395.559 294.601C396.54 295.303 397.628 295.453 398.884 295.147C400.188 294.829 401.64 294.02 403.163 292.833C404.673 291.655 406.177 290.166 407.584 288.587C411.93 283.708 420.025 283.026 424.299 288.415L429.088 294.455C429.555 295.044 429.456 295.901 428.867 296.368C428.278 296.835 427.421 296.737 426.954 296.147L422.164 290.108C419.147 286.303 413.07 286.524 409.618 290.399C408.145 292.051 406.521 293.669 404.838 294.981C403.168 296.283 401.362 297.347 399.528 297.794C397.644 298.252 395.711 298.058 393.974 296.816C392.292 295.614 390.957 293.543 389.945 290.588C388.25 285.64 384.251 282.418 380.21 281.998Z" fill="#DCEDB9"/>
<path fill-rule="evenodd" clip-rule="evenodd" d="M380.267 281.998C376.388 281.591 371.976 283.777 369.28 290.739C369.008 291.44 368.219 291.789 367.518 291.517C366.816 291.245 366.468 290.456 366.739 289.755C369.758 281.96 375.144 278.721 380.552 279.289C385.812 279.842 390.592 283.97 392.569 289.81C393.488 292.523 394.57 294.014 395.606 294.763C396.585 295.472 397.666 295.622 398.915 295.314C400.216 294.994 401.665 294.177 403.187 292.977C404.695 291.787 406.197 290.282 407.603 288.686C411.944 283.756 420.04 283.065 424.309 288.512L429.093 294.615C429.557 295.207 429.453 296.063 428.861 296.527C428.269 296.991 427.413 296.887 426.949 296.295L422.165 290.193C419.153 286.35 413.095 286.571 409.647 290.486C408.177 292.156 406.555 293.79 404.874 295.116C403.206 296.431 401.402 297.507 399.567 297.959C397.681 298.424 395.746 298.227 394.009 296.97C392.33 295.756 390.999 293.665 389.989 290.684C388.293 285.673 384.295 282.422 380.267 281.998Z" fill="#8AA357"/>
<rect x="354.331" y="253.239" width="39.272" height="4.27334" rx="2.13667" fill="#DCEDB9"/>
<rect x="354.331" y="262.641" width="22.9454" height="4.27334" rx="2.13667" fill="#DCEDB9"/>
<path d="M398.015 33.1506C398.015 26.3127 403.728 20.7695 410.776 20.7695H479.684C486.731 20.7695 492.444 26.3127 492.444 33.1506V52.4652C492.444 59.3031 486.731 64.8463 479.684 64.8463H424.788C421.834 64.8463 418.971 65.8408 416.688 67.6602L405.927 76.2369C403.048 79.1202 398.015 77.1429 398.015 73.1284V33.1506Z" fill="#90A7AE"/>
<rect x="413.018" y="31.0255" width="41.8134" height="4.27334" rx="2.13667" fill="white"/>
<rect x="413.018" y="40.4269" width="64.4237" height="4.27334" rx="2.13667" fill="white"/>
<rect x="413.018" y="49.8282" width="59.1583" height="4.27332" rx="2.13666" fill="white"/>
<path d="M71.9251 207.076C71.9251 201.89 67.5735 197.686 62.2055 197.686H9.71961C4.35162 197.686 7.62939e-06 201.89 7.62939e-06 207.076V221.725C7.62939e-06 226.911 4.35162 231.116 9.71961 231.116H51.5328C53.783 231.116 55.9635 231.87 57.7022 233.25L65.899 239.755C68.0917 241.942 71.9251 240.442 71.9251 237.397V207.076Z" fill="#90A7AE"/>
<rect x="10.3173" y="205.679" width="10.6119" height="2.85472" rx="1.42736" fill="white"/>
<rect x="10.3174" y="211.96" width="19.7499" height="2.85472" rx="1.42736" fill="white"/>
<rect x="10.3174" y="218.24" width="41.5633" height="2.85468" rx="1.42734" fill="white"/>
<rect x="412.135" y="172.473" width="103.254" height="99.9962" rx="30" fill="#577883"/>
<path fill-rule="evenodd" clip-rule="evenodd" d="M454.937 235.479C467.671 235.479 477.768 225.515 477.768 213.497C477.768 201.48 467.671 191.516 454.937 191.516C442.204 191.516 432.106 201.48 432.106 213.497C432.106 225.515 442.204 235.479 454.937 235.479ZM454.937 239.565C469.803 239.565 481.854 227.894 481.854 213.497C481.854 199.101 469.803 187.43 454.937 187.43C440.071 187.43 428.02 199.101 428.02 213.497C428.02 227.894 440.071 239.565 454.937 239.565Z" fill="white"/>
<path fill-rule="evenodd" clip-rule="evenodd" d="M470.928 230.839C471.717 230.033 473.03 229.997 473.862 230.76L496.002 251.074C496.834 251.837 496.868 253.109 496.079 253.915C495.29 254.722 493.977 254.758 493.145 253.995L471.004 233.681C470.173 232.918 470.138 231.646 470.928 230.839Z" fill="white"/>
</svg>
