<svg width="36" height="36" viewBox="0 0 36 36" fill="none" xmlns="http://www.w3.org/2000/svg">
<rect x="14.1312" y="27.1312" width="2" height="7" rx="1" fill="#DCEDB9"/>
<rect x="19.1312" y="21.1312" width="3" height="13" rx="1.5" fill="#DCEDB9"/>
<path d="M22.1312 12.5398C22.1312 13.971 21.0119 15.1312 19.6312 15.1312C18.2505 15.1312 17.1312 13.971 17.1312 12.5398C17.1312 11.1087 19.6312 8.13116 19.6312 8.13116C19.6312 8.13116 22.1312 11.1087 22.1312 12.5398Z" fill="#DCEDB9"/>
<path d="M16.4262 24.9509L16.4262 19.705" stroke="#577883" stroke-width="2.5" stroke-linecap="round" stroke-linejoin="round"/>
<path d="M11.1803 32.8197L11.1803 27.5738" stroke="#577883" stroke-width="2.5" stroke-linecap="round" stroke-linejoin="round"/>
<path d="M11.1803 27.5738H16.0983" stroke="#577883" stroke-width="2.5"/>
<path d="M16.4262 19.705H21.6721" stroke="#577883" stroke-width="2.5"/>
<path d="M16.4262 32.8197L16.4262 23.6394" stroke="#577883" stroke-width="2.5" stroke-linecap="round" stroke-linejoin="round"/>
<path d="M21.6721 32.8197L21.6721 19.7049" stroke="#577883" stroke-width="2.5" stroke-linecap="round" stroke-linejoin="round"/>
<path d="M24.1312 34.1311H12C6.47715 34.1311 2 29.654 2 24.1312V18.0656V12C2 6.47715 6.47715 2 12 2H24.1311C29.654 2 34.1311 6.47673 34.1311 11.9996V18.0656V24.1312C34.1311 29.654 29.654 34.1311 24.1312 34.1311Z" stroke="#577883" stroke-width="2.5" stroke-linecap="round" stroke-linejoin="round"/>
<path d="M21.0779 12.0568C21.0779 13.7223 19.6412 15.1763 17.7377 15.1763C15.8342 15.1763 14.3975 13.7223 14.3975 12.0568C14.3975 11.7782 14.5549 11.2425 14.9686 10.4636C15.3587 9.72935 15.8931 8.93052 16.4488 8.17661C16.9023 7.56139 17.3576 6.99269 17.7377 6.53523C18.1177 6.99269 18.5731 7.56139 19.0266 8.17661C19.5823 8.93052 20.1167 9.72935 20.5067 10.4636C20.9205 11.2425 21.0779 11.7782 21.0779 12.0568Z" stroke="#577883" stroke-width="2.5"/>
</svg>
