<svg width="23" height="17" viewBox="0 0 23 17" fill="none" xmlns="http://www.w3.org/2000/svg">
<path d="M15.5455 10.7177C15.5455 9.61308 16.441 8.71765 17.5455 8.71765H20.6416C21.7462 8.71765 22.6416 9.61308 22.6416 10.7177V14.0897C22.6416 15.1942 21.7462 16.0897 20.6416 16.0897H17.5455C16.441 16.0897 15.5455 15.1942 15.5455 14.0897V10.7177Z" fill="#DCEDB9"/>
<path d="M1.58966 2.29248C1.58966 1.87827 1.92545 1.54248 2.33966 1.54248H20.6415C21.0558 1.54248 21.3915 1.87827 21.3915 2.29248V14.0897C21.3915 14.5039 21.0558 14.8397 20.6415 14.8397H2.33966C1.92545 14.8397 1.58966 14.5039 1.58966 14.0897V2.29248Z" stroke="white" stroke-width="2.5"/>
<path d="M1.35339 1.34558L10.2123 8.70829C10.9532 9.32413 12.028 9.32412 12.769 8.70829L21.6278 1.34558" stroke="white" stroke-width="2.5"/>
</svg>
