<svg width="36" height="36" viewBox="0 0 36 36" fill="none" xmlns="http://www.w3.org/2000/svg">
<path d="M24 34H12C6.47715 34 2 29.5228 2 24V18V12C2 6.47715 6.47715 2 12 2H24C29.5228 2 34 6.47665 34 11.9995V18V24C34 29.5228 29.5228 34 24 34Z" stroke="#577883" stroke-width="2.5" stroke-linecap="round" stroke-linejoin="round"/>
<path d="M18 15.3636C18 17.7736 14 23 14 23C14 23 10 17.7736 10 15.3636C10 12.9537 11.7909 11 14 11C16.2091 11 18 12.9537 18 15.3636Z" fill="#DCEDB9"/>
<path d="M24.04 16.08C24.04 16.8963 23.652 18.0908 22.9433 19.5268C22.2517 20.928 21.3196 22.4332 20.3725 23.8291C19.4278 25.2214 18.4812 26.4861 17.7697 27.4037C17.6222 27.594 17.4849 27.7692 17.36 27.9273C17.2351 27.7692 17.0978 27.594 16.9503 27.4037C16.2388 26.4861 15.2922 25.2214 14.3475 23.8291C13.4004 22.4332 12.4683 20.928 11.7767 19.5268C11.068 18.0908 10.68 16.8963 10.68 16.08C10.68 12.3907 13.6707 9.39996 17.36 9.39996C21.0493 9.39996 24.04 12.3907 24.04 16.08Z" stroke="#577883" stroke-width="2"/>
<path d="M20.2 16.08C20.2 17.6485 18.9285 18.92 17.36 18.92C15.7915 18.92 14.52 17.6485 14.52 16.08C14.52 14.5115 15.7915 13.24 17.36 13.24C18.9285 13.24 20.2 14.5115 20.2 16.08Z" stroke="#577883" stroke-width="2"/>
</svg>
