<svg width="36" height="36" viewBox="0 0 36 36" fill="none" xmlns="http://www.w3.org/2000/svg">
<path d="M24 34H11.8688C6.34599 34 1.86884 29.5228 1.86884 24V11.8688C1.86884 6.34598 6.34598 1.86884 11.8688 1.86884H24C29.5228 1.86884 34 6.34599 34 11.8688V17V24C34 29.5228 29.5228 34 24 34Z" stroke="#577883" stroke-width="2.5" stroke-linecap="round" stroke-linejoin="round"/>
<path d="M20 18.2981C20 20.3426 18.2091 22 16 22C13.7909 22 12 20.3426 12 18.2981C12 16.2536 16 12 16 12C16 12 20 16.2536 20 18.2981Z" fill="#DCEDB9"/>
<path d="M22.75 17.0769C22.75 19.551 20.5114 21.75 17.5 21.75C14.4886 21.75 12.25 19.551 12.25 17.0769C12.25 16.5978 12.5155 15.7977 13.1086 14.7289C13.6754 13.7075 14.4465 12.6053 15.2404 11.5744C16.0306 10.5482 16.8237 9.61783 17.4208 8.94253C17.4476 8.9122 17.474 8.8824 17.5 8.85315C17.526 8.8824 17.5524 8.9122 17.5792 8.94253C18.1763 9.61783 18.9694 10.5482 19.7596 11.5744C20.5535 12.6053 21.3246 13.7075 21.8914 14.7289C22.4845 15.7977 22.75 16.5978 22.75 17.0769Z" stroke="#577883" stroke-width="2.5"/>
<path d="M13 26H22.5" stroke="#577883" stroke-width="2.5" stroke-linecap="round" stroke-linejoin="round"/>
</svg>
