<svg width="23" height="25" viewBox="0 0 23 25" fill="none" xmlns="http://www.w3.org/2000/svg">
<path d="M18.8799 15.0421L18.8827 15.0445L19.5327 15.6237C19.5332 15.6241 19.5337 15.6245 19.5341 15.6249C20.0894 16.1177 20.749 16.7856 21.0312 17.5993C21.1861 18.046 21.235 18.5565 21.0796 19.0862C20.9277 19.6042 20.6121 20.0331 20.2217 20.3846C20.2215 20.3848 20.2212 20.3851 20.2209 20.3853L19.6797 20.874C19.1263 21.4532 17.544 22.8483 14.9772 22.8769M18.8799 15.0421L2.03075 7.51808C1.56969 10.6778 3.04977 14.0538 5.92371 17.4764L6.88149 16.6735L5.92438 17.4772C5.92427 17.4771 5.92416 17.477 5.92405 17.4768C8.78705 20.8918 11.8329 22.9123 14.9772 22.8769M18.8799 15.0421C18.3073 14.5349 17.5798 13.9833 16.7414 13.7591C15.7854 13.5034 14.8085 13.7055 13.962 14.4635L13.962 14.4634M18.8799 15.0421L13.962 14.4634M14.9772 22.8769L14.9632 21.627L14.9773 22.8769C14.9772 22.8769 14.9772 22.8769 14.9772 22.8769ZM13.962 14.4634L13.9564 14.4685M13.962 14.4634L13.9564 14.4685M13.9564 14.4685L13.3206 15.0447C13.3198 15.0454 13.319 15.0461 13.3182 15.0469C13.2031 15.1508 13.0877 15.2849 13.0338 15.3474C13.0267 15.3557 13.0206 15.3627 13.0158 15.3683C12.9455 15.449 12.9006 15.4972 12.8589 15.5349C12.8325 15.5588 12.8153 15.5709 12.8064 15.5766C12.8016 15.5764 12.7946 15.5759 12.7851 15.5745C12.7653 15.5718 12.7327 15.5654 12.686 15.5501C12.591 15.519 12.442 15.4528 12.2339 15.3147C11.8098 15.0335 11.2128 14.5032 10.4129 13.5503L10.4125 13.5498M13.9564 14.4685L10.4125 13.5498M10.4125 13.5498C8.74692 11.5678 8.78114 10.821 8.79912 10.7291C8.79924 10.7285 8.79932 10.7278 8.79941 10.7271C8.80037 10.719 8.80252 10.701 8.86447 10.6456C8.90561 10.6088 8.95717 10.5702 9.04284 10.5106C9.04879 10.5064 9.05645 10.5012 9.06556 10.4949C9.13281 10.4487 9.27877 10.3485 9.39358 10.2463L9.3936 10.2463M10.4125 13.5498L9.3936 10.2463M9.3936 10.2463L9.39998 10.2406M9.3936 10.2463L9.39998 10.2406M9.39998 10.2406L10.0428 9.6605M9.39998 10.2406L10.0428 9.6605M10.0428 9.6605C10.0428 9.66045 10.0429 9.6604 10.0429 9.66035C10.8824 8.90292 11.1889 7.96033 11.0831 6.99475C10.9884 6.13081 10.5724 5.32175 10.1648 4.6609C10.1646 4.66059 10.1644 4.66028 10.1642 4.65998L9.70167 3.90746L9.70168 3.90745M10.0428 9.6605L9.70168 3.90745M9.70168 3.90745L9.69855 3.90242M9.70168 3.90745L9.69855 3.90242M9.69855 3.90242C9.30877 3.27497 8.75955 2.49921 8.00489 2.0888C7.58491 1.8604 7.07693 1.73091 6.5175 1.82148C5.97479 1.90936 5.51009 2.18389 5.12106 2.53338L5.12106 2.53338M9.69855 3.90242L5.12106 2.53338M5.12106 2.53338L5.11775 2.53637M5.12106 2.53338L5.11775 2.53637M5.11775 2.53637L4.5792 3.02368M5.11775 2.53637L4.5792 3.02368M4.5792 3.02368C3.93774 3.51901 2.4074 4.93158 2.03083 7.51755L4.5792 3.02368Z" stroke="white" stroke-width="2.5"/>
<mask id="mask0" mask-type="alpha" maskUnits="userSpaceOnUse" x="3" y="3" width="17" height="19">
<path d="M8.368 7.80437L8.36817 7.80422C8.50481 7.68096 8.55421 7.58797 8.57552 7.53092C8.59717 7.47295 8.61176 7.39302 8.59797 7.26716C8.56595 6.97506 8.39706 6.55693 8.03659 5.97266L8.0355 5.9709L7.57348 5.21926C7.39922 4.93893 7.24118 4.7158 7.09655 4.54834C6.99909 4.43549 6.92384 4.36693 6.8723 4.32693C6.85079 4.34275 6.82444 4.36388 6.79321 4.39185L6.21802 4.91232L6.17666 4.94974L6.13213 4.98334C5.79802 5.23539 4.75878 6.13239 4.50468 7.87816L4.5046 7.8787C4.19554 9.99572 5.14547 12.6622 7.83888 15.8695L7.83955 15.8703C10.5374 19.0884 12.936 20.3997 14.9492 20.3771L14.9493 20.3771C16.6057 20.3586 17.5979 19.4404 17.8924 19.1255L17.9285 19.0868L17.9678 19.0514L18.547 18.5285L18.5484 18.5272C18.61 18.4718 18.645 18.4305 18.664 18.4045C18.6407 18.3451 18.5821 18.236 18.4499 18.0745C18.3095 17.903 18.1178 17.7105 17.8737 17.4939L17.8717 17.4921L17.2224 16.9136C17.2219 16.9132 17.2215 16.9128 17.221 16.9124C16.7102 16.4602 16.3459 16.2412 16.0956 16.1742C15.9935 16.1469 15.9355 16.1521 15.8969 16.1615C15.8576 16.1709 15.7694 16.2014 15.632 16.3239L14.9982 16.8983C14.9988 16.8978 14.9991 16.8975 14.9992 16.8976C14.9996 16.898 14.9795 16.9202 14.9002 17.0111C14.8203 17.1028 14.6942 17.2458 14.536 17.3889C14.208 17.6856 13.6934 18.027 12.969 18.0719C12.2618 18.1157 11.555 17.8643 10.8522 17.3982C10.1528 16.9344 9.38005 16.2082 8.49852 15.1581L8.368 7.80437ZM8.368 7.80437L7.73785 8.37305M8.368 7.80437L7.73785 8.37305M7.73785 8.37305C7.73785 8.37305 7.73785 8.37304 7.73785 8.37304C7.73749 8.37257 7.71378 8.38963 7.61407 8.45907C7.51376 8.52893 7.35839 8.63869 7.19859 8.7815C6.86452 9.08005 6.48274 9.54821 6.34562 10.2492C6.08663 11.5733 6.80147 13.1385 8.4981 15.1576L7.73785 8.37305ZM18.6846 18.3717C18.6846 18.3717 18.6843 18.3724 18.6836 18.3738C18.6842 18.3724 18.6845 18.3717 18.6846 18.3717Z" fill="white" stroke="black" stroke-width="2.5"/>
</mask>
<g mask="url(#mask0)">
<path d="M28.102 14.1934C28.102 17.7859 25.1897 20.6982 21.5972 20.6982C18.0048 20.6982 15.0925 17.7859 15.0925 14.1934C15.0925 10.601 18.0048 7.68872 21.5972 7.68872C25.1897 7.68872 28.102 10.601 28.102 14.1934Z" fill="#DCEDB9"/>
<path d="M19.1981 3.04248C19.1981 6.90848 16.0641 10.0425 12.1981 10.0425C8.33213 10.0425 5.19812 6.90848 5.19812 3.04248C5.19812 -0.823512 8.33213 -3.95752 12.1981 -3.95752C16.0641 -3.95752 19.1981 -0.823512 19.1981 3.04248Z" fill="#DCEDB9"/>
</g>
</svg>
