<svg width="125" height="39" viewBox="0 0 125 39" fill="none" xmlns="http://www.w3.org/2000/svg">
<path d="M55.98 26.72C55.98 27.72 55.32 28.24 54.18 28.24H51.66V25.14H54.14C55.28 25.14 55.98 25.72 55.98 26.72ZM55.64 21.18C55.64 22.14 55.02 22.64 53.9 22.64H51.66V19.7H53.9C55.02 19.7 55.64 20.22 55.64 21.18ZM59.44 27.18C59.44 25.58 58.38 24.14 56.74 23.8C58.1 23.4 59.12 22.3 59.12 20.6C59.12 18.38 57.42 16.96 54.56 16.96H48.24V31H54.78C57.74 31 59.44 29.5 59.44 27.18ZM71.0036 31H74.6236L69.5436 16.96H65.5836L60.5036 31H64.0836L64.9236 28.52H70.1636L71.0036 31ZM69.2836 25.88H65.8236L67.5436 20.74L69.2836 25.88ZM83.5897 21.52C83.5897 22.62 82.9897 23.28 81.7097 23.28H79.5897V19.8H81.7097C82.9897 19.8 83.5897 20.48 83.5897 21.52ZM76.1697 16.96V31H79.5897V25.7H80.4097L83.3297 31H87.1897L83.9497 25.44C86.1097 24.8 87.0697 23.14 87.0697 21.38C87.0697 18.94 85.3497 16.96 81.9097 16.96H76.1697ZM89.2166 31H92.6366V16.96H89.2166V31ZM104.255 16.96V25.66L98.535 16.96H95.115V31H98.535V22.34L104.255 31H107.675V16.96H104.255ZM116.714 16.8C112.514 16.8 109.574 19.76 109.574 23.96C109.574 28.16 112.534 31.1 116.734 31.1C120.434 31.1 122.774 28.68 123.494 26.26V23.08H116.054V25.6H120.394C119.874 27.18 118.694 28.08 116.994 28.08C114.534 28.08 113.054 26.56 113.054 23.96C113.054 21.52 114.514 19.96 116.714 19.96C117.994 19.96 118.954 20.46 119.474 21.4H123.254C122.514 18.52 120.074 16.8 116.714 16.8Z" fill="#577883"/>
<g clip-path="url(#clip0)">
<path d="M8.28762 0L5.45924 1.60838L8.65477 7.06348C3.41872 10.7207 0 16.7344 0 23.5438V37.3915L1.63265 38.9999H39.3673L41 37.3915V23.5438C41 16.7334 37.5808 10.7189 32.3434 7.06181L35.54 1.60916L32.7148 0.000785388L29.5388 5.41437C26.8122 4.09376 23.7455 3.34968 20.4999 3.34968C17.2538 3.34968 14.1865 4.09413 11.4594 5.41525L8.28762 0ZM20.4999 6.56643C29.1124 6.56643 36.1704 12.6704 37.5043 20.7608C36.4849 20.2767 35.63 19.4805 35.0825 18.4634L32.1959 18.4682C31.261 20.2136 29.4285 21.3022 27.4251 21.3027C25.422 21.3027 23.5927 20.2136 22.6578 18.4682H19.7678C18.8325 20.2136 17.0035 21.3024 15.0002 21.3027C12.9969 21.3027 11.1644 20.2136 10.2294 18.4682H7.34263C6.54319 19.9603 5.08715 20.9696 3.43014 21.232C4.56366 12.9097 11.7255 6.56879 20.5035 6.56879L20.4999 6.56643ZM15.6143 12.3948C15.2141 12.3428 14.8072 12.4088 14.4451 12.5846C14.083 12.7603 13.782 13.038 13.58 13.3823C13.4459 13.611 13.3589 13.8635 13.3239 14.1254C13.2889 14.3873 13.3065 14.6533 13.3759 14.9084C13.4453 15.1635 13.5653 15.4027 13.7285 15.6122C13.8918 15.8217 14.0952 15.9974 14.3275 16.1294C14.7963 16.3959 15.3536 16.4681 15.8764 16.33C16.3993 16.1919 16.8448 15.8548 17.1154 15.393C17.386 14.9313 17.4595 14.3825 17.3195 13.8675C17.1795 13.3525 16.8374 12.9134 16.3687 12.6467C16.1365 12.5148 15.8801 12.4291 15.6143 12.3948ZM26.8581 12.3948C26.4579 12.3428 26.051 12.4088 25.6889 12.5846C25.3267 12.7603 25.0256 13.038 24.8236 13.3823C24.6895 13.611 24.6025 13.8635 24.5675 14.1254C24.5325 14.3873 24.5503 14.6533 24.6197 14.9084C24.6891 15.1635 24.8088 15.4027 24.9721 15.6122C25.1354 15.8217 25.339 15.9974 25.5713 16.1294C26.0401 16.3959 26.5972 16.4681 27.12 16.33C27.6428 16.1919 28.0886 15.8548 28.3592 15.393C28.6298 14.9313 28.7031 14.3825 28.5631 13.8675C28.423 13.3525 28.081 12.9134 27.6123 12.6467C27.3801 12.5148 27.1238 12.4291 26.8581 12.3948ZM21.2155 21.4732C22.8359 23.2424 24.9464 24.5171 27.4283 24.5171C29.8975 24.5171 31.996 23.2512 33.6151 21.4981C34.7547 22.7393 36.1337 23.7414 37.7345 24.2112V28.1544C36.6108 27.6851 35.6607 26.8556 35.0716 25.7614L32.1915 25.7662C31.2564 27.5116 29.4267 28.5994 27.4234 28.5998C25.4202 28.5998 23.5873 27.5116 22.6524 25.7662H19.7668C18.8317 27.5116 16.9992 28.5995 14.9958 28.5998C12.9926 28.5998 11.1594 27.5116 10.2242 25.7662H7.33845C6.51304 27.3064 4.98877 28.3334 3.2653 28.5541V24.482C5.44825 24.2707 7.32035 23.0782 8.78812 21.4772C10.4084 23.2453 12.5223 24.5186 15.0034 24.5186C17.4852 24.5182 19.5952 23.2438 21.2155 21.4748V21.4732ZM8.77616 28.7711C10.3964 30.5394 12.508 31.8151 14.9892 31.8151C17.4702 31.8147 19.5816 30.5393 21.2019 28.7711C22.8222 30.5404 24.9353 31.8151 27.4174 31.8151C29.8879 31.8151 31.9882 30.5481 33.6075 28.7936C34.7495 30.0382 36.1301 31.0408 37.7345 31.5092V35.7832H3.2653V31.7768C5.44352 31.5615 7.31166 30.3701 8.77616 28.7711Z" fill="#577883"/>
</g>
<defs>
<clipPath id="clip0">
<rect width="41" height="39" fill="white"/>
</clipPath>
</defs>
</svg>
